# Blender v2.90.1 OBJ File: ''
# www.blender.org
mtllib shortarrow.mtl
o Cone
v 0.000000 -0.020000 -0.970000
v 0.003902 -0.019616 -0.970000
v 0.007654 -0.018478 -0.970000
v 0.011111 -0.016629 -0.970000
v 0.014142 -0.014142 -0.970000
v 0.016629 -0.011111 -0.970000
v 0.018478 -0.007654 -0.970000
v 0.019616 -0.003902 -0.970000
v 0.020000 -0.000000 -0.970000
v 0.019616 0.003902 -0.970000
v 0.018478 0.007654 -0.970000
v 0.016629 0.011111 -0.970000
v 0.014142 0.014142 -0.970000
v 0.011111 0.016629 -0.970000
v 0.007654 0.018478 -0.970000
v 0.003902 0.019616 -0.970000
v -0.000000 0.020000 -0.970000
v -0.003902 0.019616 -0.970000
v -0.007654 0.018478 -0.970000
v -0.011111 0.016629 -0.970000
v -0.014142 0.014142 -0.970000
v -0.016629 0.011111 -0.970000
v -0.018478 0.007654 -0.970000
v -0.019616 0.003902 -0.970000
v -0.020000 -0.000000 -0.970000
v -0.019616 -0.003902 -0.970000
v -0.018478 -0.007654 -0.970000
v -0.016629 -0.011111 -0.970000
v -0.014142 -0.014142 -0.970000
v -0.011111 -0.016629 -0.970000
v -0.007654 -0.018478 -0.970000
v -0.003902 -0.019616 -0.970000
v 0.000000 -0.000000 -1.030000
vt 0.250000 0.490000
vt 0.250000 0.250000
vt 0.296822 0.485388
vt 0.341844 0.471731
vt 0.383337 0.449553
vt 0.419706 0.419706
vt 0.449553 0.383337
vt 0.471731 0.341844
vt 0.485388 0.296822
vt 0.490000 0.250000
vt 0.485388 0.203178
vt 0.471731 0.158156
vt 0.449553 0.116663
vt 0.419706 0.080294
vt 0.383337 0.050447
vt 0.341844 0.028269
vt 0.296822 0.014612
vt 0.250000 0.010000
vt 0.203178 0.014612
vt 0.158156 0.028269
vt 0.116663 0.050447
vt 0.080294 0.080294
vt 0.050447 0.116663
vt 0.028269 0.158156
vt 0.014611 0.203179
vt 0.010000 0.250000
vt 0.014612 0.296822
vt 0.028269 0.341844
vt 0.050447 0.383337
vt 0.080295 0.419706
vt 0.116663 0.449553
vt 0.158156 0.471731
vt 0.750000 0.490000
vt 0.796822 0.485388
vt 0.841844 0.471731
vt 0.883337 0.449553
vt 0.919706 0.419706
vt 0.949553 0.383337
vt 0.971731 0.341844
vt 0.985388 0.296822
vt 0.990000 0.250000
vt 0.985388 0.203178
vt 0.971731 0.158156
vt 0.949553 0.116663
vt 0.919706 0.080294
vt 0.883337 0.050447
vt 0.841844 0.028269
vt 0.796822 0.014612
vt 0.750000 0.010000
vt 0.703178 0.014612
vt 0.658156 0.028269
vt 0.616663 0.050447
vt 0.580294 0.080294
vt 0.550447 0.116663
vt 0.528269 0.158156
vt 0.514611 0.203179
vt 0.510000 0.250000
vt 0.514612 0.296822
vt 0.528269 0.341844
vt 0.550447 0.383337
vt 0.580295 0.419706
vt 0.616663 0.449553
vt 0.658156 0.471731
vt 0.703179 0.485389
vt 0.203179 0.485389
vn 0.0930 -0.9446 -0.3149
vn 0.2755 -0.9083 -0.3149
vn 0.4474 -0.8371 -0.3149
vn 0.6021 -0.7337 -0.3149
vn 0.7337 -0.6021 -0.3149
vn 0.8371 -0.4474 -0.3149
vn 0.9083 -0.2755 -0.3149
vn 0.9446 -0.0930 -0.3149
vn 0.9446 0.0930 -0.3149
vn 0.9083 0.2755 -0.3149
vn 0.8371 0.4474 -0.3149
vn 0.7337 0.6021 -0.3149
vn 0.6021 0.7337 -0.3149
vn 0.4474 0.8371 -0.3149
vn 0.2755 0.9083 -0.3149
vn 0.0930 0.9446 -0.3149
vn -0.0930 0.9446 -0.3149
vn -0.2755 0.9083 -0.3149
vn -0.4474 0.8371 -0.3149
vn -0.6021 0.7337 -0.3149
vn -0.7337 0.6021 -0.3149
vn -0.8371 0.4474 -0.3149
vn -0.9083 0.2755 -0.3149
vn -0.9446 0.0930 -0.3149
vn -0.9446 -0.0930 -0.3149
vn -0.9083 -0.2755 -0.3149
vn -0.8371 -0.4474 -0.3149
vn -0.7337 -0.6021 -0.3149
vn -0.6021 -0.7337 -0.3149
vn -0.4474 -0.8371 -0.3149
vn -0.0000 0.0000 1.0000
vn -0.2755 -0.9083 -0.3149
vn -0.0930 -0.9446 -0.3149
usemtl None
s off
f 1/1/1 33/2/1 2/3/1
f 2/3/2 33/2/2 3/4/2
f 3/4/3 33/2/3 4/5/3
f 4/5/4 33/2/4 5/6/4
f 5/6/5 33/2/5 6/7/5
f 6/7/6 33/2/6 7/8/6
f 7/8/7 33/2/7 8/9/7
f 8/9/8 33/2/8 9/10/8
f 9/10/9 33/2/9 10/11/9
f 10/11/10 33/2/10 11/12/10
f 11/12/11 33/2/11 12/13/11
f 12/13/12 33/2/12 13/14/12
f 13/14/13 33/2/13 14/15/13
f 14/15/14 33/2/14 15/16/14
f 15/16/15 33/2/15 16/17/15
f 16/17/16 33/2/16 17/18/16
f 17/18/17 33/2/17 18/19/17
f 18/19/18 33/2/18 19/20/18
f 19/20/19 33/2/19 20/21/19
f 20/21/20 33/2/20 21/22/20
f 21/22/21 33/2/21 22/23/21
f 22/23/22 33/2/22 23/24/22
f 23/24/23 33/2/23 24/25/23
f 24/25/24 33/2/24 25/26/24
f 25/26/25 33/2/25 26/27/25
f 26/27/26 33/2/26 27/28/26
f 27/28/27 33/2/27 28/29/27
f 28/29/28 33/2/28 29/30/28
f 29/30/29 33/2/29 30/31/29
f 30/31/30 33/2/30 31/32/30
f 1/33/31 2/34/31 3/35/31 4/36/31 5/37/31 6/38/31 7/39/31 8/40/31 9/41/31 10/42/31 11/43/31 12/44/31 13/45/31 14/46/31 15/47/31 16/48/31 17/49/31 18/50/31 19/51/31 20/52/31 21/53/31 22/54/31 23/55/31 24/56/31 25/57/31 26/58/31 27/59/31 28/60/31 29/61/31 30/62/31 31/63/31 32/64/31
f 31/32/32 33/2/32 32/65/32
f 32/65/33 33/2/33 1/1/33
o Cylinder
v 0.000000 -0.008000 -0.909934
v 0.000000 -0.008000 -0.969934
v 0.001561 -0.007846 -0.909934
v 0.001561 -0.007846 -0.969934
v 0.003061 -0.007391 -0.909934
v 0.003061 -0.007391 -0.969934
v 0.004445 -0.006652 -0.909934
v 0.004445 -0.006652 -0.969934
v 0.005657 -0.005657 -0.909934
v 0.005657 -0.005657 -0.969934
v 0.006652 -0.004445 -0.909934
v 0.006652 -0.004445 -0.969934
v 0.007391 -0.003061 -0.909934
v 0.007391 -0.003061 -0.969934
v 0.007846 -0.001561 -0.909934
v 0.007846 -0.001561 -0.969934
v 0.008000 0.000000 -0.909934
v 0.008000 -0.000000 -0.969934
v 0.007846 0.001561 -0.909934
v 0.007846 0.001561 -0.969934
v 0.007391 0.003061 -0.909934
v 0.007391 0.003061 -0.969934
v 0.006652 0.004445 -0.909934
v 0.006652 0.004445 -0.969934
v 0.005657 0.005657 -0.909934
v 0.005657 0.005657 -0.969934
v 0.004445 0.006652 -0.909934
v 0.004445 0.006652 -0.969934
v 0.003061 0.007391 -0.909934
v 0.003061 0.007391 -0.969934
v 0.001561 0.007846 -0.909934
v 0.001561 0.007846 -0.969934
v -0.000000 0.008000 -0.909934
v -0.000000 0.008000 -0.969934
v -0.001561 0.007846 -0.909934
v -0.001561 0.007846 -0.969934
v -0.003061 0.007391 -0.909934
v -0.003061 0.007391 -0.969934
v -0.004445 0.006652 -0.909934
v -0.004445 0.006652 -0.969934
v -0.005657 0.005657 -0.909934
v -0.005657 0.005657 -0.969934
v -0.006652 0.004445 -0.909934
v -0.006652 0.004445 -0.969934
v -0.007391 0.003061 -0.909934
v -0.007391 0.003061 -0.969934
v -0.007846 0.001561 -0.909934
v -0.007846 0.001561 -0.969934
v -0.008000 -0.000000 -0.909934
v -0.008000 -0.000000 -0.969934
v -0.007846 -0.001561 -0.909934
v -0.007846 -0.001561 -0.969934
v -0.007391 -0.003061 -0.909934
v -0.007391 -0.003061 -0.969934
v -0.006652 -0.004445 -0.909934
v -0.006652 -0.004445 -0.969934
v -0.005657 -0.005657 -0.909934
v -0.005657 -0.005657 -0.969934
v -0.004445 -0.006652 -0.909934
v -0.004445 -0.006652 -0.969934
v -0.003061 -0.007391 -0.909934
v -0.003061 -0.007391 -0.969934
v -0.001561 -0.007846 -0.909934
v -0.001561 -0.007846 -0.969934
vt 1.000000 0.500000
vt 1.000000 1.000000
vt 0.968750 1.000000
vt 0.968750 0.500000
vt 0.937500 1.000000
vt 0.937500 0.500000
vt 0.906250 1.000000
vt 0.906250 0.500000
vt 0.875000 1.000000
vt 0.875000 0.500000
vt 0.843750 1.000000
vt 0.843750 0.500000
vt 0.812500 1.000000
vt 0.812500 0.500000
vt 0.781250 1.000000
vt 0.781250 0.500000
vt 0.750000 1.000000
vt 0.750000 0.500000
vt 0.718750 1.000000
vt 0.718750 0.500000
vt 0.687500 1.000000
vt 0.687500 0.500000
vt 0.656250 1.000000
vt 0.656250 0.500000
vt 0.625000 1.000000
vt 0.625000 0.500000
vt 0.593750 1.000000
vt 0.593750 0.500000
vt 0.562500 1.000000
vt 0.562500 0.500000
vt 0.531250 1.000000
vt 0.531250 0.500000
vt 0.500000 1.000000
vt 0.500000 0.500000
vt 0.468750 1.000000
vt 0.468750 0.500000
vt 0.437500 1.000000
vt 0.437500 0.500000
vt 0.406250 1.000000
vt 0.406250 0.500000
vt 0.375000 1.000000
vt 0.375000 0.500000
vt 0.343750 1.000000
vt 0.343750 0.500000
vt 0.312500 1.000000
vt 0.312500 0.500000
vt 0.281250 1.000000
vt 0.281250 0.500000
vt 0.250000 1.000000
vt 0.250000 0.500000
vt 0.218750 1.000000
vt 0.218750 0.500000
vt 0.187500 1.000000
vt 0.187500 0.500000
vt 0.156250 1.000000
vt 0.156250 0.500000
vt 0.125000 1.000000
vt 0.125000 0.500000
vt 0.093750 1.000000
vt 0.093750 0.500000
vt 0.062500 1.000000
vt 0.062500 0.500000
vt 0.296822 0.485388
vt 0.250000 0.490000
vt 0.203179 0.485389
vt 0.158156 0.471731
vt 0.116663 0.449553
vt 0.080295 0.419706
vt 0.050447 0.383337
vt 0.028269 0.341844
vt 0.014612 0.296822
vt 0.010000 0.250000
vt 0.014611 0.203179
vt 0.028269 0.158156
vt 0.050447 0.116663
vt 0.080294 0.080294
vt 0.116663 0.050447
vt 0.158156 0.028269
vt 0.203178 0.014612
vt 0.250000 0.010000
vt 0.296822 0.014612
vt 0.341844 0.028269
vt 0.383337 0.050447
vt 0.419706 0.080294
vt 0.449553 0.116663
vt 0.471731 0.158156
vt 0.485388 0.203178
vt 0.490000 0.250000
vt 0.485388 0.296822
vt 0.471731 0.341844
vt 0.449553 0.383337
vt 0.419706 0.419706
vt 0.383337 0.449553
vt 0.341844 0.471731
vt 0.031250 1.000000
vt 0.031250 0.500000
vt 0.000000 1.000000
vt 0.000000 0.500000
vt 0.750000 0.490000
vt 0.796822 0.485388
vt 0.841844 0.471731
vt 0.883337 0.449553
vt 0.919706 0.419706
vt 0.949553 0.383337
vt 0.971731 0.341844
vt 0.985388 0.296822
vt 0.990000 0.250000
vt 0.985388 0.203178
vt 0.971731 0.158156
vt 0.949553 0.116663
vt 0.919706 0.080294
vt 0.883337 0.050447
vt 0.841844 0.028269
vt 0.796822 0.014612
vt 0.750000 0.010000
vt 0.703178 0.014612
vt 0.658156 0.028269
vt 0.616663 0.050447
vt 0.580294 0.080294
vt 0.550447 0.116663
vt 0.528269 0.158156
vt 0.514611 0.203179
vt 0.510000 0.250000
vt 0.514612 0.296822
vt 0.528269 0.341844
vt 0.550447 0.383337
vt 0.580295 0.419706
vt 0.616663 0.449553
vt 0.658156 0.471731
vt 0.703179 0.485389
vn 0.0980 -0.9952 0.0000
vn 0.2903 -0.9569 0.0000
vn 0.4714 -0.8819 0.0000
vn 0.6344 -0.7730 0.0000
vn 0.7730 -0.6344 0.0000
vn 0.8819 -0.4714 0.0000
vn 0.9569 -0.2903 0.0000
vn 0.9952 -0.0980 0.0000
vn 0.9952 0.0980 -0.0000
vn 0.9569 0.2903 -0.0000
vn 0.8819 0.4714 -0.0000
vn 0.7730 0.6344 -0.0000
vn 0.6344 0.7730 -0.0000
vn 0.4714 0.8819 -0.0000
vn 0.2903 0.9569 -0.0000
vn 0.0980 0.9952 -0.0000
vn -0.0980 0.9952 -0.0000
vn -0.2903 0.9569 -0.0000
vn -0.4714 0.8819 -0.0000
vn -0.6344 0.7730 -0.0000
vn -0.7730 0.6344 -0.0000
vn -0.8819 0.4714 -0.0000
vn -0.9569 0.2903 -0.0000
vn -0.9952 0.0980 -0.0000
vn -0.9952 -0.0980 0.0000
vn -0.9569 -0.2903 0.0000
vn -0.8819 -0.4714 0.0000
vn -0.7730 -0.6344 0.0000
vn -0.6344 -0.7730 0.0000
vn -0.4714 -0.8819 0.0000
vn 0.0000 0.0000 -1.0000
vn -0.2903 -0.9569 0.0000
vn -0.0980 -0.9952 0.0000
vn 0.0000 0.0000 1.0000
usemtl None
s off
f 34/66/34 35/67/34 37/68/34 36/69/34
f 36/69/35 37/68/35 39/70/35 38/71/35
f 38/71/36 39/70/36 41/72/36 40/73/36
f 40/73/37 41/72/37 43/74/37 42/75/37
f 42/75/38 43/74/38 45/76/38 44/77/38
f 44/77/39 45/76/39 47/78/39 46/79/39
f 46/79/40 47/78/40 49/80/40 48/81/40
f 48/81/41 49/80/41 51/82/41 50/83/41
f 50/83/42 51/82/42 53/84/42 52/85/42
f 52/85/43 53/84/43 55/86/43 54/87/43
f 54/87/44 55/86/44 57/88/44 56/89/44
f 56/89/45 57/88/45 59/90/45 58/91/45
f 58/91/46 59/90/46 61/92/46 60/93/46
f 60/93/47 61/92/47 63/94/47 62/95/47
f 62/95/48 63/94/48 65/96/48 64/97/48
f 64/97/49 65/96/49 67/98/49 66/99/49
f 66/99/50 67/98/50 69/100/50 68/101/50
f 68/101/51 69/100/51 71/102/51 70/103/51
f 70/103/52 71/102/52 73/104/52 72/105/52
f 72/105/53 73/104/53 75/106/53 74/107/53
f 74/107/54 75/106/54 77/108/54 76/109/54
f 76/109/55 77/108/55 79/110/55 78/111/55
f 78/111/56 79/110/56 81/112/56 80/113/56
f 80/113/57 81/112/57 83/114/57 82/115/57
f 82/115/58 83/114/58 85/116/58 84/117/58
f 84/117/59 85/116/59 87/118/59 86/119/59
f 86/119/60 87/118/60 89/120/60 88/121/60
f 88/121/61 89/120/61 91/122/61 90/123/61
f 90/123/62 91/122/62 93/124/62 92/125/62
f 92/125/63 93/124/63 95/126/63 94/127/63
f 37/128/64 35/129/64 97/130/64 95/131/64 93/132/64 91/133/64 89/134/64 87/135/64 85/136/64 83/137/64 81/138/64 79/139/64 77/140/64 75/141/64 73/142/64 71/143/64 69/144/64 67/145/64 65/146/64 63/147/64 61/148/64 59/149/64 57/150/64 55/151/64 53/152/64 51/153/64 49/154/64 47/155/64 45/156/64 43/157/64 41/158/64 39/159/64
f 94/127/65 95/126/65 97/160/65 96/161/65
f 96/161/66 97/160/66 35/162/66 34/163/66
f 34/164/67 36/165/67 38/166/67 40/167/67 42/168/67 44/169/67 46/170/67 48/171/67 50/172/67 52/173/67 54/174/67 56/175/67 58/176/67 60/177/67 62/178/67 64/179/67 66/180/67 68/181/67 70/182/67 72/183/67 74/184/67 76/185/67 78/186/67 80/187/67 82/188/67 84/189/67 86/190/67 88/191/67 90/192/67 92/193/67 94/194/67 96/195/67
